<?xml version="1.0" encoding="utf-8"?>
<!-- Generator: Adobe Illustrator 21.1.0, SVG Export Plug-In . SVG Version: 6.00 Build 0)  -->
<svg version="1.1" id="Layer_1" xmlns="http://www.w3.org/2000/svg" xmlns:xlink="http://www.w3.org/1999/xlink" x="0px" y="0px"
	 width="315.3px" height="57.7px" viewBox="0 0 315.3 57.7" style="enable-background:new 0 0 315.3 57.7;" xml:space="preserve">
<style type="text/css">
	.st0{opacity:0.95;}
	.st1{clip-path:url(#SVGID_2_);}
	.st2{clip-path:url(#SVGID_4_);}
	.st3{fill:#EB2227;}
	.st4{fill:#FFFFFF;}
	.st5{clip-path:url(#SVGID_8_);}
	.st6{fill:#E2231A;}
</style>
<g class="st0">
	<g>
		<defs>
			<rect id="SVGID_1_" x="62.8" y="-90.1" width="57.3" height="57.3"/>
		</defs>
		<clipPath id="SVGID_2_">
			<use xlink:href="#SVGID_1_"  style="overflow:visible;"/>
		</clipPath>
		<g class="st1">
			<defs>
				<rect id="SVGID_3_" x="62.8" y="-90.1" width="57.3" height="57.3"/>
			</defs>
			<clipPath id="SVGID_4_">
				<use xlink:href="#SVGID_3_"  style="overflow:visible;"/>
			</clipPath>
			<g class="st2">
				<defs>
					<rect id="SVGID_5_" x="62.8" y="-90.1" width="57.3" height="57.3"/>
				</defs>
				<clipPath id="SVGID_6_">
					<use xlink:href="#SVGID_5_"  style="overflow:visible;"/>
				</clipPath>
				<g style="clip-path:url(#SVGID_6_);">
					
						<image style="overflow:visible;" width="228" height="228" xlink:href="E0A4704FEDF8DDEC.png"  transform="matrix(0.2512 0 0 0.2512 62.7567 -90.1076)">
					</image>
				</g>
			</g>
		</g>
	</g>
</g>
<path class="st3" d="M110.5-63c-1.4-0.5-3-0.9-4.4-1.3c0.8-0.9,2-2.4,3-3.7c1-1.3,1.5-2.4,1.5-3.4c0-0.9-0.3-1.8-1-3
	c-1.2-2.1-3.2-4.1-4.9-5.4c-1.3-0.9-3.2-2-5-2c-1,0-2,0.4-2.9,1.4c-0.9,1.2-1.8,2.5-2.6,3.7c-0.6-1-1.7-2.7-2.7-3.9
	c-1.4-1.8-2.5-2.5-4.2-2.5c-3.1,0-6.6,1.9-8.5,3.2c-1.5,1.1-3.8,2.9-3.8,5.1c0,0.7,0.2,1.4,0.8,2.1c0.9,1.2,1.9,2.5,2.8,3.6
	c-1.1,0.3-3.1,0.8-4.6,1.3c-3,1-4.3,2.3-4.3,6.3c0,1.7,0.2,3.7,1,5.8c0.7,2.3,2.3,6.2,6,5c1.4-0.5,2.9-1,4.3-1.5
	c-0.1,1.2-0.2,2.3-0.2,3.9c0,4,0.8,5.1,3.3,6.3c2.2,1,5,1.5,7.3,1.5c2.4,0,6.7-0.3,6.7-4.1c0-2.4,0-3.1-0.1-4.5
	c1.1,0.4,3,1.2,4.5,1.6c1,0.3,1.8,0.5,2.6,0.5c1.3,0,2.3-0.6,3.6-2c2.3-2.4,4.4-7,4.4-10.1C113.1-60.9,112.5-62.4,110.5-63
	 M83.9-73.8c2.8-2,5.7-2.4,7.8-2.4c0.8,0,1.5,0.1,2.1,0.1c-1.5,2.3-2.2,4-2.2,4.8c-0.1-0.2-0.5-1.4-2.2-1.4c-1.8,0-3.6,1.2-5,1.2
	c-0.9,0-1.2-0.8-1.2-1.1C83.2-73,83.3-73.4,83.9-73.8 M80.7-60.1c0,1.3-0.1,2-0.9,2.3c-0.6,0.2-1.2,0-1.5-1c-1.5-4.4,0-8.2,0.8-9.9
	c1.7,1.9,3,3.2,3.8,3.6c-0.1,0-0.3,0-0.5,0.1C80.4-64.4,80.6-61.7,80.7-60.1 M90.9-48.7c-4.8,0-8-2.6-9.2-3.9c1.1-0.5,2.2-1,3-1.5
	c0.5-0.3,1.1-0.6,1.5-1.1c-0.1,0.2-0.1,0.4-0.1,0.6c0,2,2.7,2.6,4.2,3.1c1.2,0.4,2,0.8,2,1.6C92.3-49.2,92-48.7,90.9-48.7
	 M96.4-55.8c-0.8-0.7-2.1-1.2-4.7-1.2c-2.3,0-4.1,0.4-5,1.2c0.2-0.4,0.3-1,0.3-1.7c0-0.8-0.2-1.7-0.6-3c-0.7-2.2-1.6-3.8-2.7-4.4
	c1,0.1,2.4-0.2,4.5-1.7c1.9-1.4,3.1-2.7,3.4-3.9c0.2,1,1,2.2,3.1,3.7c1.9,1.4,3.6,2.1,4.8,2c-0.9,0.5-1.8,1.6-2.6,4
	c-0.4,1.4-0.7,2.5-0.7,3.5C96.1-56.7,96.2-56.2,96.4-55.8 M102.8-54.1c-1.7,2.3-3.7,3.5-4.9,4.2c-0.1-1.3-0.2-2.5-0.4-3.4
	c-0.1-0.6-0.3-1.2-0.6-1.8c0.1,0.1,0.3,0.2,0.5,0.3c1.9,0.6,3.4-1.7,4.3-3c0.6-0.9,1.2-1.3,1.8-1.3c0.4,0,1.1,0.3,1.1,1
	C104.7-57.5,104-55.9,102.8-54.1 M101-65.2c-0.3,0-0.5,0-0.8,0.1c0.3-0.2,0.8-0.8,0.8-1.6c0-1.3-1.2-2.8-2-3.8
	c-0.5-0.7-0.9-1.3-0.9-1.8c0-0.6,0.5-1.1,1.1-1.1c0.3,0,0.6,0.1,1,0.4c3.9,2.8,4.9,6.7,5.2,8.6C103.7-64.9,102-65.2,101-65.2
	 M66.4-76.4h-6.2c-4.2-4.4-9.8-6.7-15.4-6.7c-5.8,0-11.2,2.4-15.5,6.7h-6.2c4.6-6.9,12.9-11.5,21.6-11.5
	C53.6-87.9,61.9-83.2,66.4-76.4"/>
<path class="st4" d="M5.9-59c0,4.9,3.4,8.4,8.2,8.4c2.3,0,4.5-1,6.4-3l0.1-0.1l3.1,3.7l-0.1,0.1c-2.5,3-5.6,4.5-9.3,4.5
	c-3.7,0-7.2-1.3-9.7-3.5c-2.7-2.5-4.1-6-4.1-10.1c0-4.1,1.4-7.6,4.1-10.1c2.5-2.3,5.9-3.5,9.7-3.5c3.7,0,6.8,1.4,9.3,4.4l0.1,0.1
	l-3.1,3.7l-0.1-0.1c-1.9-2-4.1-3-6.4-3C9.3-67.5,5.9-63.9,5.9-59 M26.7-45.9H32v-26.3h-5.4V-45.9z M49.2-50.3c-1.7,0-2.5-0.9-2.5-3
	v-13.9h5.5v-4.9h-5.5v-8.2l-5.3,2.8v5.3h-4.5v4.9h4.5v14.8c0,4,2.4,6.8,6,6.9c2.4,0.1,3.9-0.7,4.8-1.2l0.1,0l1.3-5.1l-0.3,0.2
	C51.7-50.8,50.4-50.3,49.2-50.3 M57.6-45.9H63v-26.3h-5.4V-45.9z"/>
<path class="st4" d="M71.9-78.8c0,1.3-1,2.4-2.4,2.4c-1.4,0-2.4-1-2.4-2.4c0-1.4,1-2.4,2.4-2.4C70.9-81.2,71.9-80.2,71.9-78.8
	 M72.4-78.8c0-1.6-1.2-2.8-2.8-2.8c-1.6,0-2.8,1.2-2.8,2.8c0,1.6,1.2,2.8,2.8,2.8C71.2-76,72.4-77.2,72.4-78.8 M70.8-79.5
	c0-0.6-0.5-0.9-1-0.9h-1.4v3.1H69v-1.2h0.6l0.6,1.2h0.6l-0.6-1.2C70.6-78.7,70.8-79,70.8-79.5 M70.3-79.5c0,0.3-0.2,0.4-0.5,0.4H69
	v-0.9h0.8C70.1-79.9,70.3-79.8,70.3-79.5"/>
<path class="st4" d="M113.7-78.8c0,1.3-1,2.4-2.4,2.4c-1.4,0-2.4-1-2.4-2.4c0-1.4,1-2.4,2.4-2.4C112.7-81.2,113.7-80.2,113.7-78.8
	 M114.2-78.8c0-1.6-1.2-2.8-2.8-2.8c-1.6,0-2.8,1.2-2.8,2.8c0,1.6,1.2,2.8,2.8,2.8C113-76,114.2-77.2,114.2-78.8 M112.7-79.5
	c0-0.6-0.5-0.9-1-0.9h-1.4v3.1h0.5v-1.2h0.6l0.6,1.2h0.6l-0.6-1.2C112.4-78.7,112.7-79,112.7-79.5 M112.1-79.5
	c0,0.3-0.2,0.4-0.5,0.4h-0.8v-0.9h0.8C111.9-79.9,112.1-79.8,112.1-79.5"/>
<g class="st0">
	<g>
		<defs>
			<rect id="SVGID_7_" x="257.8" y="0.3" width="57.4" height="57.4"/>
		</defs>
		<clipPath id="SVGID_8_">
			<use xlink:href="#SVGID_7_"  style="overflow:visible;"/>
		</clipPath>
		<g class="st5">
			<defs>
				<rect id="SVGID_9_" x="257.8" y="0.3" width="57.4" height="57.4"/>
			</defs>
			<clipPath id="SVGID_10_">
				<use xlink:href="#SVGID_9_"  style="overflow:visible;"/>
			</clipPath>
			<g style="clip-path:url(#SVGID_10_);">
				
					<image style="overflow:visible;" width="208" height="208" xlink:href="E0A4704FEDF8DDED.png"  transform="matrix(0.276 0 0 0.276 257.8353 0.2641)">
				</image>
			</g>
		</g>
	</g>
</g>
<path class="st6" d="M274.2,21.8c-0.8,1.7-2.3,5.5-0.8,9.9c0.3,1,1,1.2,1.5,1c0.8-0.3,0.9-1,0.9-2.3c0-1.6-0.2-4.4,1.7-5
	c0.2-0.1,0.3-0.1,0.5-0.1C277.2,24.9,275.9,23.7,274.2,21.8 M286.8,14.2c-2.2,0-5.1,0.4-7.8,2.4c-0.6,0.4-0.7,0.8-0.7,1.1
	c0,0.3,0.3,1.1,1.2,1.1c1.3,0,3.1-1.2,5-1.2c1.7,0,2.2,1.2,2.2,1.4c0.1-0.8,0.8-2.5,2.2-4.8C288.4,14.2,287.7,14.2,286.8,14.2
	 M293.3,45.7c0,3.8-4.3,4.1-6.7,4.1c-2.3,0-5.1-0.4-7.4-1.5c-2.5-1.2-3.3-2.4-3.3-6.4c0-1.6,0.1-2.7,0.2-3.9
	c-1.4,0.5-2.9,1.1-4.3,1.5c-3.7,1.2-5.3-2.8-6-5c-0.7-2.2-1-4.1-1-5.8c0-4,1.3-5.3,4.3-6.3c1.5-0.5,3.5-1,4.6-1.3
	c-0.9-1.1-1.9-2.3-2.8-3.6c-0.6-0.7-0.8-1.4-0.8-2.1c0-2.2,2.3-4,3.8-5.1c1.9-1.3,5.4-3.2,8.5-3.2c1.7,0,2.8,0.7,4.2,2.5
	c1,1.3,2.1,3,2.7,4c0.8-1.2,1.7-2.5,2.6-3.7c0.8-1,1.8-1.4,2.9-1.4c1.8,0,3.8,1.1,5,2c1.7,1.3,3.8,3.3,4.9,5.4c0.7,1.1,1,2.1,1,3
	c0,1.1-0.5,2.1-1.5,3.4c-1,1.3-2.2,2.9-3,3.7c1.4,0.3,2.9,0.8,4.4,1.3c2,0.7,2.6,2.2,2.6,3.8c0,3.1-2.1,7.7-4.4,10.1
	c-1.3,1.4-2.3,2-3.6,2c-0.8,0-1.6-0.2-2.6-0.5c-1.5-0.5-3.4-1.2-4.5-1.6C293.2,42.6,293.3,43.4,293.3,45.7 M291.9,29.7
	c0.8-2.4,1.7-3.5,2.6-4c-1.2,0.1-2.9-0.6-4.8-2c-2.1-1.5-2.9-2.7-3.1-3.7c-0.2,1.2-1.5,2.5-3.4,3.9c-2.1,1.5-3.5,1.9-4.5,1.7
	c1.1,0.6,2,2.2,2.7,4.4c0.4,1.3,0.6,2.2,0.6,3c0,0.7-0.1,1.2-0.3,1.7c0.9-0.8,2.7-1.2,5-1.2c2.6,0,4,0.5,4.7,1.2
	c-0.2-0.4-0.3-0.9-0.3-1.5C291.3,32.2,291.5,31,291.9,29.7 M292.7,37.1c0.2,0.9,0.3,2.1,0.4,3.4c1.2-0.6,3.2-1.9,4.9-4.2
	c1.2-1.8,1.9-3.4,1.9-4.1c0-0.7-0.7-1-1.1-1c-0.6,0-1.2,0.5-1.8,1.4c-0.9,1.3-2.4,3.7-4.3,3c-0.2-0.1-0.4-0.2-0.6-0.3
	C292.4,35.9,292.5,36.5,292.7,37.1 M294.4,17c-0.6,0-1.1,0.5-1.1,1.1c0,0.5,0.4,1.1,0.9,1.9c0.8,1,2,2.4,2,3.8
	c0,0.9-0.5,1.4-0.8,1.6c0.3-0.1,0.5-0.1,0.8-0.1c1,0,2.7,0.3,4.4,0.7c-0.3-1.9-1.3-5.8-5.2-8.6C295,17.1,294.7,17,294.4,17
	 M279.8,36.4c-0.8,0.5-1.8,0.9-3,1.5c1.2,1.3,4.5,3.9,9.3,3.9c1.1,0,1.5-0.5,1.5-1.1c0-0.8-0.8-1.2-2-1.6c-1.6-0.5-4.2-1.1-4.2-3.1
	c0-0.2,0-0.4,0.1-0.6C280.9,35.8,280.3,36.1,279.8,36.4"/>
<path class="st4" d="M84.2,45.1c-2.7,0-5.6-1.4-7-3v2.5h-5.3V12.9l5.3-2.8v10.7c1.9-1.8,4.5-3.1,7.3-3.1c5.7,0,10.7,4.1,10.7,14.1
	C95.2,40.8,89.7,45.1,84.2,45.1 M83.5,22.5c-2.5,0-5,1.7-6.4,3.4v11.1c1.2,1.6,4,3.5,6.6,3.5c3.7,0,6.3-2.8,6.3-8.4
	C90,25.4,87.3,22.5,83.5,22.5"/>
<path class="st4" d="M140.8,44.6V29.7c0-5.3-2-7.2-5.4-7.2c-3.5,0-5.6,2.5-5.6,6.7v15.4h-5.3V18.2h5.3v2.5c1.3-1.9,4.2-3.1,6.9-3.1
	c6.1,0,9.4,3.4,9.4,11.8v15.1H140.8z"/>
<path class="st4" d="M114.4,44.6v-2.6c-1.8,1.8-4.6,3.2-7.4,3.2c-4.3,0-9.4-2.4-9.4-8.9c0-5.9,4.8-8.5,10.7-8.5c2.5,0,4.6,0.4,6.1,1
	v-2c0-2.9-2.1-4.5-5.4-4.5c-2.7,0-4.8,0.5-6.9,1.7l-2-3.9c2.5-1.6,5.4-2.4,9.1-2.4c5.9,0,10.4,2.9,10.4,8.8v18H114.4z M114.4,33.3
	c-1.4-0.7-3.4-1.2-6.2-1.2c-3.3,0-5.6,1.5-5.6,3.9c0,2.6,1.9,4.4,5.3,4.4c2.8,0,5.4-1.7,6.6-3.4V33.3z"/>
<path class="st4" d="M166.1,44.6v-2.6c-1.8,1.8-4.6,3.2-7.4,3.2c-4.3,0-9.4-2.4-9.4-8.9c0-5.9,4.8-8.5,10.7-8.5c2.5,0,4.6,0.4,6.1,1
	v-2c0-2.9-2.1-4.5-5.4-4.5c-2.7,0-4.8,0.5-6.9,1.7l-2-3.9c2.5-1.6,5.4-2.4,9.1-2.4c5.9,0,10.4,2.9,10.4,8.8v18H166.1z M166.1,33.3
	c-1.4-0.7-3.4-1.2-6.2-1.2c-3.3,0-5.6,1.5-5.6,3.9c0,2.6,1.9,4.4,5.3,4.4c2.8,0,5.4-1.7,6.6-3.4V33.3z"/>
<path class="st4" d="M207.1,44.6V29.7c0-5.3-1.7-7.2-5.1-7.2c-3.5,0-5,2.5-5,6.7v15.4h-5.3V29.7c0-5.3-1.6-7.2-5-7.2
	c-3.5,0-5.3,2.5-5.3,6.7v15.4h-5.3V18.2h5.3v2.5c1.3-1.9,3.8-3.1,6.5-3.1c3.6,0,5.8,1.4,7.2,3.9c1.9-2.4,4-3.9,8.1-3.9
	c6.1,0,9.2,2.8,9.2,11.6v15.3H207.1z"/>
<path class="st4" d="M239.3,33.2h-18.2c0.6,5.1,3.8,7.1,7,7.1c2.2,0,4.5-0.8,6.3-2.1l2.9,3.4c-2.3,2.2-5.5,3.5-9.5,3.5
	c-6.2,0-11.9-5-11.9-13.7c0-8.9,5.2-13.7,12-13.7c7.5,0,11.5,6.1,11.5,13.2C239.5,31.8,239.4,32.7,239.3,33.2 M227.6,22.4
	c-3.5,0-6,2.4-6.4,6.6h13C234,25.4,231.9,22.4,227.6,22.4"/>
<path class="st4" d="M256,44.6l-2.5-4.6c-1.1-1.9-2.3-4.3-2.8-5.3c-0.5,1-1.9,3.6-2.9,5.4l-2.6,4.5h-5.8l8.1-13.6L240,18.2h6
	l2.1,3.7c1.1,1.9,2.3,4.3,2.8,5.3c0.6-1,1.8-3.5,2.8-5.4l2-3.6h6L254,30.9l8.1,13.6H256z"/>
<path class="st6" d="M66.6,14C62.1,7.2,53.8,2.4,44.9,2.4c-8.7,0-17,4.6-21.7,11.5h6.2c4.3-4.4,9.7-6.7,15.5-6.7
	c5.7,0,11.2,2.4,15.5,6.7H66.6z"/>
<path class="st4" d="M20.7,36.8l-0.1,0.1c-1.9,1.9-4.1,3-6.4,3c-4.7,0-8.2-3.5-8.2-8.5c0-4.9,3.4-8.5,8.2-8.5c2.3,0,4.5,1,6.4,3
	l0.1,0.1l3.1-3.7l-0.1-0.1c-2.6-3-5.6-4.5-9.3-4.5c-3.8,0-7.2,1.3-9.7,3.5c-2.7,2.5-4.1,6-4.1,10.1c0,4.1,1.4,7.6,4.1,10.1
	c2.5,2.3,5.9,3.5,9.7,3.5c3.7,0,6.8-1.5,9.3-4.5l0.1-0.1L20.7,36.8z"/>
<rect x="26.8" y="18.2" class="st4" width="5.4" height="26.3"/>
<path class="st4" d="M53.4,38.8c-1.4,0.9-2.8,1.3-4,1.3c-1.8,0-2.5-0.9-2.5-3v-14h5.5v-5h-5.5V10l-5.3,2.8v5.4H37v5h4.6v14.9
	c0,4.1,2.4,6.8,6,6.9c2.4,0.1,3.9-0.7,4.8-1.2l0.1,0l1.3-5.1L53.4,38.8z"/>
<rect x="57.8" y="18.2" class="st4" width="5.4" height="26.3"/>
</svg>
